<?xml version="1.0" standalone="no"?>
<!DOCTYPE svg PUBLIC "-//W3C//DTD SVG 20010904//EN"
 "http://www.w3.org/TR/2001/REC-SVG-20010904/DTD/svg10.dtd">
<svg version="1.0" xmlns="http://www.w3.org/2000/svg"
 width="186.000000pt" height="186.000000pt" viewBox="0 0 186.000000 186.000000"
 preserveAspectRatio="xMidYMid meet">
<metadata>
Created by potrace 1.11, written by Peter Selinger 2001-2013
</metadata>
<g transform="translate(0.000000,186.000000) scale(0.100000,-0.100000)"
fill="#000000" stroke="none">
<path d="M33 1452 c-12 -2 -23 -12 -26 -25 -2 -12 -4 -190 -3 -395 l1 -374 23
-18 c17 -14 22 -29 22 -64 l0 -46 167 -2 168 -3 -1 -48 c0 -37 4 -47 16 -47
13 0 17 10 16 47 -1 61 15 64 34 6 26 -82 107 -116 176 -74 30 18 64 74 64
105 0 14 37 16 358 16 l357 0 15 -47 c38 -120 189 -123 230 -5 l14 42 98 0 98
0 0 180 c0 206 -4 221 -73 293 -24 26 -48 60 -52 74 -9 39 -70 93 -150 133
l-70 35 0 102 c0 56 -4 105 -8 110 -8 7 -1424 12 -1474 5z m1437 -407 l0 -365
-710 0 -710 0 0 365 0 365 710 0 710 0 0 -365z m114 109 c53 -27 92 -57 107
-86 8 -16 2 -17 -77 -12 -47 2 -89 6 -93 8 -6 4 -7 103 -2 114 3 5 16 1 65
-24z m155 -167 c13 -12 37 -40 52 -61 27 -36 29 -46 29 -128 l0 -88 -153 0
-153 0 1 155 0 155 100 -6 c83 -5 104 -9 124 -27z m81 -307 c0 -5 -9 -10 -20
-10 -18 0 -20 -7 -20 -55 l0 -55 -63 0 c-60 0 -63 1 -76 31 -16 36 -65 69
-103 69 -20 0 -26 4 -22 15 5 12 32 15 155 15 93 0 149 -4 149 -10z m0 -70 c0
-22 -4 -40 -10 -40 -5 0 -10 18 -10 40 0 22 5 40 10 40 6 0 10 -18 10 -40z
m-1349 15 c-23 -59 -8 -55 -203 -55 l-178 0 0 28 c0 16 2 31 4 33 10 9 381 3
377 -6z m964 -22 l-20 -32 -366 -1 -366 0 -14 28 c-7 15 -15 29 -16 32 -2 3
178 5 400 5 l403 0 -21 -32z m-820 -6 c18 -15 28 -36 32 -64 5 -37 2 -45 -25
-73 -18 -17 -41 -30 -56 -30 -38 0 -75 38 -82 87 -6 38 -3 45 24 73 36 36 71
39 107 7z m972 -1 c23 -20 28 -32 28 -71 0 -39 -5 -51 -28 -71 -15 -13 -39
-24 -52 -24 -13 0 -37 11 -52 24 -23 20 -28 32 -28 71 0 39 5 51 28 71 15 13
39 24 52 24 13 0 37 -11 52 -24z"/>
<path d="M110 1250 c0 -60 4 -100 10 -100 6 0 10 37 10 90 l0 90 200 0 c127 0
200 4 200 10 0 6 -77 10 -210 10 l-210 0 0 -100z"/>
<path d="M1580 876 c0 -82 -7 -74 75 -90 11 -3 40 -9 65 -15 71 -17 70 -18 70
55 0 61 -2 68 -31 95 -29 27 -37 29 -105 29 l-74 0 0 -74z m164 33 c22 -17 26
-28 26 -73 l0 -53 -82 17 -83 17 -3 56 -3 57 59 0 c45 0 66 -5 86 -21z"/>
<path d="M527 562 c-33 -36 -8 -92 40 -92 25 0 53 30 53 57 0 46 -62 69 -93
35z"/>
<path d="M1497 562 c-21 -23 -21 -41 -1 -70 18 -27 55 -29 77 -4 23 26 21 58
-5 76 -29 21 -51 20 -71 -2z"/>
</g>
</svg>
