 <svg xmlns="http://www.w3.org/2000/svg" width="96" height="98" viewBox="0 0 96 98">
  <path fill="#FFF" d="M68,67.5571429 C68,68.9 66.8871413,70 65.4996812,70 L2.47141339,70 C1.11285866,70 0,68.9 0,67.5428571 L0,19.5285714 C0,19.4571429 0.0144527099,19.3714286 0.0289054198,19.2142857 C0.0289054198,19.1571429 0.0289054198,19.1142857 0.0722635494,18.9714286 C0.0867162593,18.9285714 0.0867162593,18.9 0.130074389,18.7571429 C0.144527099,18.7285714 0.158979809,18.6857143 0.216790648,18.5571429 C0.231243358,18.5142857 0.260148778,18.4857143 0.332412327,18.3285714 C0.361317747,18.2714286 0.404675877,18.2285714 0.549202976,18.0142857 L14.1636557,0.928571429 C14.6405951,0.342857143 15.3487779,0 16.1147715,0 L51.8996812,0 C52.6656748,0 53.3738576,0.342857143 53.850797,0.928571429 C62.9463691,12.3666667 67.518243,18.1190476 67.5664187,18.1857143 C67.6097768,18.2428571 67.6386823,18.2857143 67.7253985,18.4571429 C67.7543039,18.5 67.7687566,18.5285714 67.8265675,18.6714286 C67.8410202,18.7 67.8554729,18.7428571 67.898831,18.8714286 C67.9132837,18.9142857 67.9132837,18.9428571 67.9566419,19.0857143 C67.9566419,19.1428571 67.9710946,19.1857143 67.9855473,19.3142857 C68,19.3857143 68,19.4714286 68,19.5428571 L68,67.5571429 Z M60.4123273,17.0857143 L50.6856536,4.9 L36.4786397,4.9 L36.4786397,17.0857143 L60.4123273,17.0857143 Z M17.3143464,4.9 L7.6021254,17.0857143 L31.5213603,17.0857143 L31.5213603,4.9 L17.3143464,4.9 Z M4.9717322,21.9857143 L4.9717322,65.1 L63.0427205,65.1 L63.0427205,21.9857143 L4.9717322,21.9857143 Z" transform="translate(11 7)"/>
</svg>