<svg xmlns="http://www.w3.org/2000/svg" width="110" height="86" viewBox="0 0 110 86">
  <path fill="#FFF" d="M75.7220124,38.9972568 L43.5360825,26.1205814 L43.5360825,21.646639 C48.5117072,20.5211801 52.231633,16.1586448 52.231633,10.9642701 C52.231633,4.91858036 47.1931134,0 41,0 C34.8068866,0 29.768367,4.91858036 29.768367,10.9642701 L34.840532,10.9642701 C34.840532,7.64879601 37.6036784,4.95142482 41,4.95142482 C44.3963216,4.95142482 47.159468,7.64879601 47.159468,10.9642701 C47.159468,14.2797441 44.3963216,16.9771153 41,16.9771153 L38.4639175,16.9771153 L38.4639175,26.1207465 L6.27798763,38.9972568 C2.4642268,40.5231209 0,44.1084476 0,48.1311502 C0,53.5729311 4.53519175,58 10.1096701,58 L71.8903299,58 C77.4648082,58 82,53.572766 82,48.1311502 C82,44.1084476 79.5357732,40.5231209 75.7220124,38.9972568 Z M71.8903299,53.0487402 L10.1096701,53.0487402 C7.33198351,53.0487402 5.07216495,50.8427154 5.07216495,48.1311502 C5.07216495,46.1263182 6.30047423,44.3395141 8.20152165,43.5788102 L41,30.4570393 L73.7984784,43.5789752 C75.6995258,44.3395141 76.9278351,46.1263182 76.9278351,48.1311502 C76.9278351,50.8427154 74.6680165,53.0487402 71.8903299,53.0487402 Z" transform="translate(11 7)"/>
</svg>
