<svg xmlns="http://www.w3.org/2000/svg" xmlns:xlink="http://www.w3.org/1999/xlink" width="650" height="210" viewBox="0 0 650 210">
  <defs>
    <rect id="logo-a" width="150" height="81" rx="3"/>
  </defs>
  <g fill="none" fill-rule="evenodd" transform="translate(0 1)">
    <path fill="#D8D8D8" d="M185.960339,74.9017544 L238.496928,30.6631579 C242.874977,28.819883 246.158514,28.3590643 248.347538,29.2807018 C250.536563,30.2023392 256.009124,33.4280702 264.765223,38.9578947 C266.954247,40.8011696 269.690528,40.8011696 272.974065,38.9578947 C276.257601,37.1146199 286.655468,28.3590643 304.167665,12.6912281 C308.545714,11.7695906 311.82925,11.7695906 314.018275,12.6912281 C316.2073,13.6128655 332.624984,26.0549708 363.271327,50.0175439 C368.743889,50.9391813 372.027426,50.9391813 373.121938,50.0175439 C374.21645,49.0959064 380.783524,43.5660819 392.823159,33.4280702 C396.106696,31.5847953 399.390232,31.5847953 402.673769,33.4280702 C405.957306,35.271345 424.564015,44.948538 458.493895,62.4596491 C462.871944,64.302924 467.249993,64.302924 471.628043,62.4596491 C476.006092,60.6163743 486.951214,56.4690058 504.463411,50.0175439 C507.746948,48.174269 510.483228,48.174269 512.672253,50.0175439 C514.861277,51.8608187 525.259144,62.9204678 543.865853,83.1964912 L650,209 L557,209 L37.4423715,209 C11.7261422,208.625314 -0.743240849,206.321221 0.0342222311,202.087719 C0.811685311,197.854218 62.7870575,155.458896 185.960339,74.9017544 Z" opacity=".513"/>
    <g transform="translate(384 90)">
      <polygon fill="#63BBC6" points="35 17.988 35 0 0 0 0 119 35 119"/>
      <rect width="4.2" height="4.151" x="4.2" y="5.535" fill="#FFF"/>
      <rect width="4.2" height="4.151" x="4.2" y="12.453" fill="#FFF"/>
      <rect width="4.2" height="4.151" x="4.2" y="19.372" fill="#FFF"/>
      <rect width="4.2" height="4.151" x="11.2" y="12.453" fill="#FFF"/>
      <rect width="4.2" height="4.151" x="4.2" y="26.291" fill="#FFF"/>
      <rect width="4.2" height="4.151" x="11.2" y="26.291" fill="#FFF"/>
      <rect width="4.2" height="4.151" x="11.2" y="33.209" fill="#FFF"/>
      <rect width="4.2" height="4.151" x="11.2" y="40.128" fill="#FFF"/>
      <rect width="4.2" height="4.151" x="11.2" y="47.047" fill="#FFF"/>
      <rect width="4.2" height="4.151" x="4.2" y="47.047" fill="#FFF"/>
      <rect width="4.2" height="4.151" x="28" y="24.907" fill="#FFF"/>
    </g>
    <g transform="translate(312 75)">
      <polygon fill="#9ECFD5" points="142.871 9.67 142.871 134 184.484 134 184.484 9.67"/>
      <polygon fill="#E26C6C" points="0 0 0 134 52.71 134 52.71 0"/>
      <polygon fill="#E26C6C" points="173.387 48.351 173.387 134 215 134 215 48.351"/>
      <polygon fill="#3DA8B6" points="31.903 45.588 31.903 134 73.516 134 73.516 45.588"/>
    </g>
    <g stroke="#3DA8B6" stroke-width="2" transform="translate(420)">
      <path fill="#FFF" fill-opacity=".75" d="M19.25,73.4933333 L0,42.9866667 L55,42.9866667 L38.5,73.4933333 L38.5,208 L19.25,208 L19.25,73.4933333 Z M15.125,41.6 L15.125,36.0533333 C15.125,34.2044444 16.0416667,33.28 17.875,33.28 C19.7083333,33.28 27.0416667,33.28 39.875,33.28 C41.7083333,34.2044444 42.625,35.1288889 42.625,36.0533333 C42.625,36.9777778 42.625,38.8266667 42.625,41.6 L15.125,41.6 Z M27.5,31.8933333 L27.5,0 L28.875,0 L28.875,31.8933333 L27.5,31.8933333 Z"/>
      <path d="M5.5 51.3066667L49.5 51.3066667M11 59.6266667L45.375 59.6266667"/>
    </g>
    <g transform="translate(407 109)">
      <polygon fill="#E26C6C" points="0 0 67 0 67 100 0 100"/>
      <rect width="4.188" height="4.167" x="5.583" y="5.556" fill="#F6F6F6" rx=".5"/>
      <rect width="4.188" height="4.167" x="13.958" y="5.556" fill="#F6F6F6" rx=".5"/>
      <rect width="4.188" height="4.167" x="22.333" y="5.556" fill="#F6F6F6" rx=".5"/>
      <rect width="4.188" height="4.167" x="5.583" y="12.5" fill="#F6F6F6" rx=".5"/>
      <rect width="4.188" height="4.167" x="13.958" y="12.5" fill="#F6F6F6" rx=".5"/>
      <rect width="4.188" height="4.167" x="22.333" y="12.5" fill="#F6F6F6" rx=".5"/>
      <rect width="4.188" height="4.167" x="5.583" y="19.444" fill="#F6F6F6" rx=".5"/>
      <rect width="4.188" height="4.167" x="5.583" y="26.389" fill="#F6F6F6" rx=".5"/>
      <rect width="4.188" height="4.167" x="13.958" y="19.444" fill="#F6F6F6" rx=".5"/>
    </g>
    <g stroke="#1C2141" transform="translate(98 103)">
      <rect width="146" height="77" x="2" y="2" stroke-linejoin="square" stroke-width="4" rx="3"/>
      <use xlink:href="#logo-a"/>
      <ellipse cx="55.5" cy="92.5" stroke-width="4" rx="10.5" ry="11.5"/>
      <ellipse cx="152.5" cy="92.5" stroke-width="4" rx="10.5" ry="11.5"/>
      <circle cx="55.5" cy="92.5" r="4.5" fill="#D8D8D8" stroke-width="2"/>
      <circle cx="152.5" cy="92.5" r="4.5" fill="#D8D8D8" stroke-width="2"/>
      <polyline stroke-width="4" points="6 81 6 90 45 90"/>
      <path stroke-width="4" d="M66 90L141 90M150 24C164 29.3333333 171 35 171 41M149 41L171 42.03C179 48.8966667 183 54.39 183 58.51 183 62.63 183 73.96 183 92.5M164 91L185 91"/>
      <path stroke-width="2" d="M149,75 L182,75"/>
      <rect width="4" height="10" x="178" y="79" stroke-width="2"/>
      <path stroke-width="2" d="M158,51 L171,51 C175,53.6666667 177,55.8333333 177,57.5 C177,59.1666667 177,62.6666667 177,68 L158,64 L158,51 Z"/>
      <polyline stroke-width="2" points="11 30 11 11 52 11"/>
      <path stroke-width="3" d="M39,91 L39,102"/>
    </g>
  </g>
</svg>
