<svg xmlns="http://www.w3.org/2000/svg" width="36" height="28" viewBox="0 0 36 28">
  <path fill="#3DA8B6" d="M3.6,0 L32.4,0 C32.9148,0 33.4116,0.1085 33.8724,0.308 L18,18.3085 L2.1276,0.308 C2.5848,0.105 3.0852,0 3.6,0 Z M1.59872116e-15,24.5 L1.59872116e-15,3.5 C1.59872116e-15,3.4265 0.0036,3.353 0.0072,3.2795 L10.5624,15.253 L0.1224,25.403 C0.0396,25.1125 0,24.808 1.59872116e-15,24.5 Z M32.4,28 L3.6,28 C3.2832,28 2.97,27.958 2.6712,27.881 L12.9168,17.92 L18.0036,23.688 L23.0904,17.92 L33.336,27.881 C33.0372,27.9615 32.724,28 32.4072,28 L32.4,28 Z M36,24.5 C36,24.808 35.9568,25.1125 35.8776,25.403 L25.4376,15.253 L35.9928,3.2795 C35.9964,3.353 36,3.4265 36,3.5 L36,24.5 Z"/>
</svg>
