<svg xmlns="http://www.w3.org/2000/svg" width="39" height="36" viewBox="0 0 39 36">
  <path fill="#3DA8B6" d="M37.0228792,25.6147946 C36.0686063,25.1332229 31.3456825,22.8313106 30.468914,22.5134733 C29.5921456,22.195636 28.9527344,22.0319017 28.3036351,22.9950449 C27.6690679,23.943741 25.8234945,26.0963662 25.2615877,26.7416721 C24.6996809,27.372531 24.142618,27.4640296 23.1883452,26.982458 C22.2340724,26.5008863 19.1290527,25.4944016 15.4669702,22.2437932 C12.6186838,19.7155422 10.685918,16.5853266 10.1240112,15.6366306 C9.56210434,14.6879345 10.0610389,14.1630214 10.5502853,13.6958969 C10.9910916,13.2721139 11.5045582,12.5834665 11.9889606,12.0248434 C12.4733631,11.4662203 12.6235278,11.0761473 12.9432334,10.4308413 C13.262939,9.7999825 13.1079303,9.24135942 12.865729,8.7597878 C12.6235278,8.27821618 10.7004501,3.58289286 9.91571813,1.67105353 C9.14551823,-0.197444365 8.34141017,0.0626043108 7.75043918,0.0288942973 C7.18853234,0 6.55396513,0 5.91939792,0 C5.28483072,0 4.23852143,0.240785811 3.36175299,1.18948191 C2.48498456,2.138178 0,4.4545375 0,9.14986081 C0,13.8451841 3.43441336,18.3767731 3.91881581,19.0220791 C4.40321826,19.6529379 10.685918,29.2988175 20.3109947,33.4258863 C22.5973742,34.4034766 24.3848193,34.990994 25.7750543,35.4436714 C28.0759659,36.1660288 30.1637405,36.060083 31.8155528,35.8192972 C33.6611262,35.5496171 37.4927495,33.5173849 38.2968576,31.2877083 C39.1009657,29.0580316 39.1009657,27.151008 38.8587644,26.7561193 C38.6310953,26.3323363 37.9965281,26.0963662 37.0277232,25.6099788 L37.0228792,25.6147946 Z"/>
</svg>
