<svg xmlns="http://www.w3.org/2000/svg" width="95" height="91" viewBox="0 0 95 91">
  <path fill="#FFF" d="M10.799511,47.9885968 C10.0744349,49.2828558 9.49731796,51.2302148 9.49731796,52.4572381 C9.49731796,52.7421021 9.49731796,53.1044214 9.56832109,53.6070212 L0.506113769,38.1166852 C0.216040009,37.6140854 0,36.8929967 0,36.2433392 C0,35.592821 0.216040009,34.8020224 0.506113769,34.2985621 L4.85667899,26.7328863 L0,23.997203 L15.8042575,23.7064223 L23.4873156,37.4670276 L18.5596335,34.657439 L10.799511,47.9885968 Z M17.7605236,4.32750027 C19.1367504,1.94735898 21.3860127,0.650518163 24.1384663,0.650518163 C27.1128047,0.650518163 29.4331783,2.02126439 31.0993706,4.8275182 L33.5646729,8.93394772 L25.0084711,23.6358518 L11.1635103,15.6372862 L17.7605236,4.32750027 Z M18.7726429,60.4523613 C14.6410401,60.4523613 11.2345134,57.0661599 11.2345134,52.9598379 C11.2345134,51.80672 11.7435496,49.8594686 12.4686257,48.6357801 L14.7859687,44.5293506 L31.9693754,44.5293506 L31.9693754,60.4524689 L18.7726429,60.4524689 L18.7726429,60.4523613 Z M32.5496312,3.89213612 C31.4633699,2.02126439 30.0132176,0.721088679 28.2729915,0 L46.1045182,0 C47.6997074,0 48.9308974,0.650518163 49.6590042,1.87668089 L54.0806807,9.36920429 L58.8637589,6.55703374 L51.1772372,20.2495428 L35.4499359,20.0293327 L40.3066148,17.2936494 L32.5496312,3.89213612 Z M60.0268681,44.6738265 C62.1991742,44.6738265 64.0134341,44.0973213 65.5346977,42.9466777 L56.5434936,58.5074766 C55.8184174,59.7311651 54.5162243,60.4522537 52.9945277,60.4522537 L44.509329,60.4522537 L44.509329,66 L36.3911603,52.5277011 L44.509329,39.0519597 L44.509329,44.6737189 L60.0268681,44.6737189 L60.0268681,44.6738265 Z M66.9819277,31.7041274 C67.6360007,32.8572453 68,34.0809338 68,35.3785276 C68,37.9729623 66.330777,40.7111199 64.0134341,42.0054864 C62.9243586,42.5854341 61.4000643,42.9467852 59.8818312,42.9467852 L55.093233,42.9467852 L46.5425513,28.2448811 L60.387945,20.390899 L66.9819277,31.7041274 Z" transform="translate(10 7)"/>
</svg>
