<svg aria-hidden="true" style="position: absolute; width: 0; height: 0; overflow: hidden;" version="1.1" xmlns="http://www.w3.org/2000/svg" xmlns:xlink="http://www.w3.org/1999/xlink">
<defs>
<symbol id="svg-icon-recycle" viewBox="0 0 67 64">
<title>recycle</title>
<path fill="#fff" style="fill: var(--color1, #fff)" d="M14.628 38.673c-0.51 0.91-0.916 2.28-0.916 3.143 0 0.2 0 0.455 0.050 0.809l-6.373-10.894c-0.204-0.354-0.356-0.861-0.356-1.317s0.152-1.014 0.356-1.368l3.060-5.321-3.416-1.924 11.115-0.204 5.404 9.678-3.466-1.976-5.458 9.376zM19.524 7.967c0.968-1.674 2.55-2.586 4.486-2.586 2.092 0 3.724 0.964 4.896 2.938l1.734 2.888-6.018 10.34-9.737-5.625 4.64-7.954zM20.236 47.439c-2.906 0-5.302-2.382-5.302-5.269 0-0.811 0.358-2.181 0.868-3.041l1.63-2.888h12.085v11.199l-9.281-0zM29.925 7.66c-0.764-1.316-1.784-2.23-3.008-2.737h12.541c1.122 0 1.988 0.457 2.5 1.32l3.11 5.269 3.364-1.978-5.406 9.63-11.061-0.155 3.416-1.924-5.455-9.425zM49.25 36.342c1.528 0 2.804-0.405 3.874-1.215l-6.324 10.944c-0.51 0.861-1.426 1.368-2.496 1.368h-5.968v3.902l-5.709-9.475 5.709-9.477v3.954l10.913 0zM54.141 27.221c0.46 0.811 0.716 1.672 0.716 2.584 0 1.825-1.174 3.75-2.804 4.661-0.766 0.408-1.838 0.662-2.906 0.662h-3.368l-6.014-10.34 9.737-5.524 4.638 7.957z"></path>
</symbol>
<symbol id="svg-icon-box" viewBox="0 0 63 64">
<title>box</title>
<path fill="#fff" style="fill: var(--color1, #fff)" d="M51.592 48.69c0 0.877-0.727 1.595-1.633 1.595h-41.161c-0.887 0-1.614-0.718-1.614-1.605v-31.356c0-0.047 0.009-0.103 0.019-0.205 0-0.037 0-0.065 0.028-0.159 0.009-0.028 0.009-0.047 0.038-0.14 0.009-0.019 0.019-0.047 0.057-0.131 0.009-0.028 0.028-0.047 0.075-0.149 0.019-0.037 0.047-0.065 0.142-0.205l8.891-11.158c0.311-0.383 0.774-0.606 1.274-0.606h23.37c0.5 0 0.963 0.224 1.274 0.606 5.94 7.47 8.926 11.226 8.957 11.27 0.028 0.037 0.047 0.065 0.104 0.177 0.019 0.028 0.028 0.047 0.066 0.14 0.009 0.019 0.019 0.047 0.047 0.131 0.009 0.028 0.009 0.047 0.038 0.14 0 0.037 0.009 0.065 0.019 0.149 0.009 0.047 0.009 0.103 0.009 0.149v31.356zM46.637 15.729l-6.352-7.958h-9.278v7.958h15.63zM18.491 7.771l-6.343 7.958h15.621v-7.958h-9.278zM10.431 18.929v28.156h37.924v-28.156h-37.924z"></path>
</symbol>
<symbol id="svg-icon-hanger" viewBox="0 0 82 64">
<title>hanger</title>
<path fill="#fff" style="fill: var(--color1, #fff)" d="M64.537 34.23l-23.952-9.583v-3.329c3.703-0.838 6.471-4.084 6.471-7.95 0-4.499-3.75-8.159-8.358-8.159s-8.358 3.66-8.358 8.159h3.775c0-2.467 2.056-4.475 4.584-4.475s4.584 2.007 4.584 4.475c0 2.467-2.056 4.475-4.584 4.475h-1.887v6.805l-23.952 9.582c-2.838 1.136-4.672 3.804-4.672 6.797 0 4.050 3.375 7.344 7.524 7.344h45.976c4.148 0 7.524-3.295 7.524-7.344 0-2.994-1.834-5.662-4.672-6.797zM61.686 44.687h-45.976c-2.067 0-3.749-1.642-3.749-3.66 0-1.492 0.914-2.822 2.329-3.388l24.408-9.765 24.408 9.765c1.415 0.566 2.329 1.896 2.329 3.388 0 2.018-1.682 3.66-3.749 3.66z"></path>
</symbol>
<symbol id="svg-icon-toggle" viewBox="0 0 45 64">
<title>toggle</title>
<path fill="#e26c6c" style="fill: var(--color2, #e26c6c)" d="M43.346 2.153c-2.206-2.55-6.126-2.883-8.755-0.743l-32.371 26.345c-2.629 2.14-2.972 5.941-0.766 8.491s6.126 2.883 8.755 0.743l32.371-26.345c2.629-2.14 2.972-5.941 0.766-8.491z"></path>
<path fill="#e26c6c" style="fill: var(--color2, #e26c6c)" d="M43.346 61.847c2.206-2.55 1.863-6.352-0.766-8.491l-32.371-26.345c-2.629-2.14-6.549-1.807-8.755 0.743s-1.863 6.352 0.766 8.491l32.371 26.345c2.629 2.14 6.549 1.807 8.755-0.743z"></path>
</symbol>
</defs>
</svg>
