<svg xmlns="http://www.w3.org/2000/svg" width="42" height="60" viewBox="0 0 42 60">
  <g fill="#E26C6C" transform="matrix(0 -1 -1 0 42 60)">
    <path d="M57.9814032,1.36314446 C60.37203,3.43136025 60.6838527,7.10609853 58.6778787,9.57090213 L33.9793464,39.9187698 C31.9733724,42.3835734 28.4092233,42.7050714 26.0185967,40.6368555 C23.6279701,38.5686396 23.3161474,34.8939015 25.3221214,32.4290979 L50.0206536,2.08123022 C52.0266276,-0.383573388 55.5907767,-0.705071328 57.9814032,1.36314446 Z"/>
    <path d="M2.0185967,1.36314446 C4.40922333,-0.705071328 7.97337234,-0.383573388 9.97934628,2.08123022 L34.6778787,32.4290979 C36.6838527,34.8939015 36.37203,38.5686396 33.9814032,40.6368555 C31.5907767,42.7050714 28.0266277,42.3835734 26.0206537,39.9187698 L1.32212136,9.57090213 C-0.68385258,7.10609853 -0.372029949,3.43136025 2.0185967,1.36314446 Z"/>
  </g>
</svg>
